<svg version="1.1" id="Layer_1" xmlns="http://www.w3.org/2000/svg" xmlns:xlink="http://www.w3.org/1999/xlink" x="0px" y="0px"
	 width="100%" viewBox="0 0 240 240" enable-background="new 0 0 240 240" xml:space="preserve">
<path fill="#000000" opacity="1.000000" stroke="none" 
	d="
M241.000000,79.531364 
	C236.075607,85.491013 233.165634,92.259026 229.467667,98.505348 
	C215.750916,121.674622 202.260086,144.977921 188.736099,168.260895 
	C184.894806,174.874115 181.189316,181.567352 177.493744,188.263763 
	C173.496521,195.506851 167.962906,199.054230 159.165619,199.603348 
	C138.686707,200.881638 118.228622,199.820480 97.773758,200.367325 
	C89.910141,200.577560 83.860374,197.487610 79.851166,190.809296 
	C70.363564,175.005295 61.027084,159.110626 51.615189,143.261108 
	C50.965004,142.166199 50.196682,141.141434 49.076801,139.481537 
	C43.022579,149.695221 37.264183,159.366913 31.547972,169.063461 
	C23.191742,183.238358 14.951082,197.482529 6.451904,211.570953 
	C4.834450,214.252075 4.136858,217.516235 1.288838,219.811508 
	C1.000000,212.312424 1.000000,204.624832 1.000000,196.468628 
	C6.062700,190.004440 9.259434,182.843567 13.237153,176.181976 
	C25.576672,155.516739 37.763847,134.759369 49.865166,113.953430 
	C59.547913,97.305786 69.127663,80.595856 78.533066,63.790409 
	C82.567665,56.581440 88.688477,53.688736 96.548286,53.677376 
	C117.193336,53.647530 137.841156,53.859776 158.482269,53.572590 
	C167.100052,53.452686 172.338135,57.569973 176.408569,64.589699 
	C185.963669,81.068016 195.755493,97.409058 205.928162,114.611732 
	C211.208862,105.546913 216.035233,97.132111 220.988022,88.792389 
	C227.419052,77.963593 233.950653,67.194527 240.719482,56.199875 
	C241.000000,63.687576 241.000000,71.375153 241.000000,79.531364 
M90.870056,69.305313 
	C81.278519,86.192879 71.963760,103.247276 61.941231,119.875061 
	C58.558052,125.487892 59.045979,129.719315 62.202744,134.929016 
	C71.651314,150.522247 80.818901,166.287079 89.973686,182.056030 
	C92.210533,185.908966 95.186623,187.736877 99.674072,187.706390 
	C115.158684,187.601151 130.668625,187.135864 146.121597,187.842545 
	C157.170807,188.347855 164.826523,185.910233 170.055878,174.890442 
	C177.299103,159.626892 186.282333,145.178619 194.752548,130.515259 
	C196.813553,126.947311 196.343216,124.050789 194.425018,120.829941 
	C184.832397,104.723022 175.236099,88.617722 165.766418,72.438507 
	C162.860031,67.472839 158.741730,65.345108 153.074188,65.285042 
	C147.906616,65.230270 142.905716,66.540642 137.710068,66.431114 
	C124.894653,66.160950 112.069374,66.388535 99.248581,66.320038 
	C96.311096,66.304344 93.615601,66.672737 90.870056,69.305313 
z"/>
</svg>